<?xml version="1.0" encoding="iso-8859-1"?>
<!-- Generator: Adobe Illustrator 19.0.0, SVG Export Plug-In . SVG Version: 6.00 Build 0)  -->
<svg version="1.1" id="Capa_1" xmlns="http://www.w3.org/2000/svg" xmlns:xlink="http://www.w3.org/1999/xlink" x="0px" y="0px"
	 viewBox="0 0 512.001 512.001" style="enable-background:new 0 0 512.001 512.001;" xml:space="preserve">
<g>
	<g>
		<path d="M71.215,331.647v165.24c0,8.347,6.767,15.114,15.114,15.114H457.64c8.347,0,15.114-6.767,15.114-15.114v-165.24H71.215z"
			/>
	</g>
</g>
<g>
	<g>
		<polygon points="329.97,222.827 259.894,301.418 335.062,301.418 405.137,222.827 		"/>
	</g>
</g>
<g>
	<g>
		<path d="M457.64,222.827h-12.004l-70.075,78.591h97.194v-63.476C472.755,229.594,465.988,222.827,457.64,222.827z"/>
	</g>
</g>
<g>
	<g>
		<polygon points="216.318,222.827 146.243,301.418 219.394,301.418 289.471,222.827 		"/>
	</g>
</g>
<g>
	<g>
		<path d="M242.63,65.779l-65.484,29.155l-41.318,127.894h-31.766l35.981-111.374l-91.827,40.884
			c-7.626,3.395-11.056,12.329-7.66,19.955l30.659,68.861v60.264h34.527l70.075-78.591h-18.382l40.247-17.919L242.63,65.779z"/>
	</g>
</g>
<g>
	<g>
		<polygon points="279.734,49.259 234.787,188.389 300.269,159.234 345.217,20.104 		"/>
	</g>
</g>
<g>
	<g>
		<path d="M439.346,80.768L407.38,8.972c-3.395-7.627-12.329-11.057-19.955-7.661l-5.104,2.272l-44.948,139.131l94.313-41.991
			c3.662-1.63,6.526-4.648,7.963-8.391C441.085,88.589,440.976,84.43,439.346,80.768z"/>
	</g>
</g>
<g>
</g>
<g>
</g>
<g>
</g>
<g>
</g>
<g>
</g>
<g>
</g>
<g>
</g>
<g>
</g>
<g>
</g>
<g>
</g>
<g>
</g>
<g>
</g>
<g>
</g>
<g>
</g>
<g>
</g>
</svg>
