<?xml version="1.0" encoding="iso-8859-1"?>
<!-- Generator: Adobe Illustrator 19.0.0, SVG Export Plug-In . SVG Version: 6.00 Build 0)  -->
<svg version="1.1" id="Capa_1" xmlns="http://www.w3.org/2000/svg" xmlns:xlink="http://www.w3.org/1999/xlink" x="0px" y="0px"
	 viewBox="0 0 512 512" style="enable-background:new 0 0 512 512;" xml:space="preserve">
<g>
	<g>
		<path d="M484.808,332.823c-14.531-53.919-82.329-121.966-172.718-173.365C203.39,97.649,68.221,65.703,31.825,128.227
			c-8.219,14.123-9.826,31.736-4.649,50.95c14.531,53.913,82.329,121.966,172.723,173.359
			c67.27,38.252,144.756,65.061,202.66,65.061c35.505,0,63.654-10.075,77.572-33.768c0.011-0.017,0.023-0.04,0.034-0.057
			C488.385,369.65,489.991,352.037,484.808,332.823z M450.745,366.608c-18.681,31.662-119.349,21.53-234.016-43.668
			c-94.26-53.601-146.607-115.274-156.671-152.624c-2.798-10.388-2.395-18.783,1.198-24.953
			c6.494-11.154,23.579-16.898,47.868-16.898c44.718,0,113.849,19.492,186.131,60.6c94.26,53.595,146.607,115.268,156.671,152.618
			C454.719,352.06,454.327,360.438,450.745,366.608z"/>
	</g>
</g>
<g>
	<g>
		<path d="M255.998,0c-73.003,0-112.39,131.888-112.39,255.994S182.995,512,255.998,512c64.074,0,112.39-110.052,112.39-256
			C368.388,110.057,320.072,0,255.998,0z M255.998,477.948c-36.975,0-78.333-94.919-78.333-221.948s41.357-221.942,78.333-221.942
			S334.33,128.971,334.33,256S292.973,477.948,255.998,477.948z"/>
	</g>
</g>
<g>
	<g>
		<path d="M480.177,128.221c-0.011-0.017-0.023-0.04-0.034-0.057c-36.629-62.354-171.724-30.413-280.238,31.288
			c-90.4,51.404-158.192,119.452-172.723,173.365c-5.177,19.214-3.57,36.833,4.649,50.95c13.85,23.789,41.987,33.899,77.527,33.899
			c57.881,0,135.396-26.832,202.74-65.135c90.395-51.393,158.192-119.44,172.723-173.359
			C490.002,159.952,488.396,142.338,480.177,128.221z M451.931,170.317c-10.07,37.35-62.422,99.028-156.671,152.624
			c-111.556,63.432-215.557,75.381-234.004,43.69c-3.593-6.17-3.996-14.565-1.198-24.947c10.07-37.35,62.416-99.023,156.677-152.618
			c73.57-41.84,141.379-61.003,185.467-61.003c24.629,0,41.857,5.983,48.549,17.335
			C454.333,151.562,454.724,159.946,451.931,170.317z"/>
	</g>
</g>
<g>
	<g>
		<path d="M255.998,204.914c-28.166,0-51.086,22.921-51.086,51.086c0,28.171,22.921,51.086,51.086,51.086
			c28.166,0,51.081-22.915,51.086-51.086C307.084,227.829,284.163,204.914,255.998,204.914z M255.998,273.029
			c-9.389,0-17.029-7.64-17.029-17.029s7.64-17.029,17.029-17.029c9.389,0,17.023,7.64,17.029,17.029
			C273.027,265.389,265.386,273.029,255.998,273.029z"/>
	</g>
</g>
<g>
</g>
<g>
</g>
<g>
</g>
<g>
</g>
<g>
</g>
<g>
</g>
<g>
</g>
<g>
</g>
<g>
</g>
<g>
</g>
<g>
</g>
<g>
</g>
<g>
</g>
<g>
</g>
<g>
</g>
</svg>
